<svg viewBox="0 0 37.39 36.43" data-name="Layer 1" id="Layer_1" xmlns:xlink="http://www.w3.org/1999/xlink" xmlns="http://www.w3.org/2000/svg">
  <defs fill="#ffffff">
    <style>
      .cls-1 {
        clip-path: url(#clippath);
      }

      .cls-2 {
        fill: none;
      }

      .cls-2, .cls-3, .cls-4 {
        stroke-width: 0px;
      }

      .cls-4 {
        fill-rule: evenodd;
      }
    </style>
    <clipPath fill="#ffffff" id="clippath">
      <rect fill="#ffffff" height="36" width="36" y=".43" x="1.39" class="cls-2"></rect>
    </clipPath>
  </defs>
  <path fill="#ffffff" d="m2.03,30.7c-.16-.09-.29-.22-.38-.38-.09-.16-.14-.34-.15-.52,0-.18.03-.35.11-.51l6.77-11.75.95,3.32,1.44-.41-1.45-5.07c-.11-.4-.53-.63-.93-.52l-5.12,1.45.41,1.44,3.39-.96L.3,28.57v.02c-.21.39-.31.82-.3,1.26.01.44.14.86.36,1.24.22.38.54.69.91.91s.8.34,1.24.36h.02s9.7,0,9.7,0v-1.5H2.54c-.18,0-.35-.06-.51-.15Z" class="cls-3"></path>
  <path fill="#ffffff" d="m6.82,31.59c0-.41.29-.75.65-.75h8.51c.36,0,.65.34.65.75s-.29.75-.65.75H7.47c-.36,0-.65-.34-.65-.75Z" class="cls-4"></path>
  <path fill="#ffffff" d="m17.14,1.65c.16-.09.34-.14.52-.15.18,0,.36.04.53.12.16.08.29.2.39.35l6.99,11.62-3.36-.78-.34,1.46,5.14,1.19c.4.09.81-.16.9-.56l1.21-5.18-1.46-.34-.81,3.43L19.85,1.17h0c-.24-.38-.57-.67-.96-.88-.39-.2-.82-.3-1.26-.29-.44.01-.86.13-1.24.36s-.69.53-.91.91v.02s-4.72,8.49-4.72,8.49l1.31.73,4.7-8.48c.09-.15.22-.28.38-.37Z" class="cls-3"></path>
  <path fill="#ffffff" d="m14.04,5.41c.36.2.51.62.34.93l-4.13,7.44c-.17.31-.61.41-.97.2s-.51-.62-.34-.93l4.13-7.44c.17-.31.61-.41.97-.2Z" class="cls-4"></path>
  <g class="cls-1">
    <path fill="#ffffff" d="m35.47,28.56s0,0,0,0l-6.25-10.92-1.3.75,6.26,10.92h0c.09.16.14.35.15.53,0,.19-.04.37-.13.53-.09.16-.22.3-.38.4-.15.1-.33.15-.51.16h-12.78l2.55-2.55-1.06-1.06-3.76,3.76c-.14.14-.22.33-.22.53s.08.39.22.53l3.76,3.76,1.06-1.06-2.4-2.4h12.68c.44-.02.87-.16,1.25-.39.38-.23.68-.56.9-.95.21-.39.32-.83.32-1.27,0-.44-.12-.88-.35-1.26Z" class="cls-3"></path>
    <path fill="#ffffff" d="m28.3,17.54c.36-.21.77-.16.92.1l3.55,6.18c.15.26-.02.64-.38.85s-.77.16-.92-.1l-3.55-6.18c-.15-.26.02-.64.38-.85Z" class="cls-4"></path>
  </g>
</svg>