<svg viewBox="0 0 57.3 30.36" data-name="Layer 1" id="Layer_1" xmlns="http://www.w3.org/2000/svg">
  <defs fill="#ffffff">
    <style>
      .cls-1 {
        fill-rule: evenodd;
        stroke-width: 0px;
      }
    </style>
  </defs>
  <path fill="#ffffff" d="m13.23.74c0-.41.33-.74.74-.74h26.66c.22,0,.44.1.58.28.14.18.19.41.14.62l-1.38,6.08h8.52c.21,0,.4.09.54.24l8.07,8.67c.16.17.23.41.18.65l-1.81,9.1c-.07.35-.37.59-.72.59h-2.62c-.4,2.34-2.45,4.13-4.92,4.13s-4.52-1.78-4.92-4.13h-15.23c-.4,2.34-2.45,4.13-4.92,4.13s-4.62-1.87-4.95-4.3h-3.66c-.31,0-.57-.25-.57-.57s.25-.57.57-.57h3.63c.23-2.53,2.37-4.51,4.97-4.51s4.64,1.89,4.95,4.34h7.31l3.91-17.2,1.38-6.08H13.97c-.41,0-.74-.33-.74-.74Zm40.92,24.02h-1.98c-.31-2.45-2.41-4.34-4.95-4.34s-4.64,1.89-4.95,4.34h-6.34l3.71-16.3h8.54l7.6,8.16-1.61,8.13ZM9.98,6.24c0-.41.33-.74.74-.74h9.67c.41,0,.74.33.74.74s-.33.74-.74.74h-9.67c-.41,0-.74-.33-.74-.74Zm-4.67,7.09c0-.41.33-.74.74-.74h12.64c.41,0,.74.33.74.74s-.33.74-.74.74H6.05c-.41,0-.74-.33-.74-.74ZM0,20.31c0-.41.33-.74.74-.74h15.61c.41,0,.74.33.74.74s-.33.74-.74.74H.74c-.41,0-.74-.33-.74-.74Zm25.67,5.08c0,1.92-1.57,3.49-3.51,3.49s-3.51-1.57-3.51-3.49,1.57-3.5,3.51-3.5,3.51,1.57,3.51,3.5Zm21.55,3.49c1.95,0,3.51-1.57,3.51-3.49s-1.57-3.5-3.51-3.5-3.51,1.57-3.51,3.5,1.57,3.49,3.51,3.49Z" class="cls-1"></path>
</svg>