<svg viewBox="0 0 34.85 35.82" data-name="Layer 1" id="Layer_1" xmlns="http://www.w3.org/2000/svg">
  <defs fill="#ffffff">
    <style>
      .cls-1 {
        fill: none;
        stroke: #ffffff;
        stroke-linecap: round;
        stroke-linejoin: round;
        stroke-width: 1.1px;
      }
    </style>
  </defs>
  <path fill="#ffffff" d="m.55,11.86c11.33,0,11.33,11.33,11.33,11.33,0,0,0-11.33,11.31-11.33C11.88,11.86,11.88.55,11.88.55c0,0,0,11.31-11.33,11.31Z" class="cls-1"></path>
  <path fill="#ffffff" d="m21.32,20.4c.86-.03,1.71.12,2.51.44.8.31,1.53.79,2.14,1.39.61.6,1.09,1.33,1.41,2.12.32.8.48,1.65.46,2.51-.02-.85.14-1.7.45-2.49.32-.79.79-1.51,1.4-2.12.6-.6,1.32-1.08,2.12-1.4.79-.32,1.64-.47,2.49-.45-.85.02-1.69-.13-2.48-.45-.79-.31-1.5-.78-2.11-1.38-.6-.6-1.08-1.31-1.4-2.09-.32-.78-.49-1.62-.48-2.47,0,.85-.16,1.7-.48,2.48-.33.79-.81,1.5-1.42,2.1-.61.6-1.33,1.06-2.13,1.37-.79.31-1.64.46-2.49.43Z" class="cls-1"></path>
  <path fill="#ffffff" d="m14.74,31.22c.54-.02,1.07.07,1.57.26s.96.49,1.34.87.68.84.87,1.34c.2.5.29,1.04.26,1.57-.02-.54.07-1.07.26-1.57.2-.5.49-.96.87-1.34.38-.38.84-.68,1.34-.87.5-.2,1.04-.29,1.57-.26-.54.02-1.07-.07-1.57-.26-.5-.2-.96-.49-1.34-.87-.38-.38-.68-.84-.87-1.34-.2-.5-.29-1.04-.26-1.57.02.54-.07,1.07-.26,1.57s-.49.96-.87,1.34c-.38.38-.84.68-1.34.87-.5.2-1.04.29-1.57.26Z" class="cls-1"></path>
</svg>